<svg width="40" height="40" viewBox="0 0 40 40" fill="none" xmlns="http://www.w3.org/2000/svg">
  <rect width="40" height="40" rx="8" fill="#2B2D30"/>
  <ellipse cx="13" cy="10" rx="5.5" ry="2.2" fill="#4CAF50"/>
  <path d="M7.5 10v7.5c0 1.2 2.5 2.2 5.5 2.2s5.5-1 5.5-2.2V10" stroke="#4CAF50" stroke-width="1.4" fill="none" stroke-linecap="round"/>
  <path d="M7.5 13.7c0 1.2 2.5 2.2 5.5 2.2s5.5-1 5.5-2.2" stroke="#4CAF50" stroke-width="1" fill="none" stroke-linecap="round"/>
  <ellipse cx="27" cy="17" rx="5.5" ry="2.2" fill="#42A5F5"/>
  <path d="M21.5 17v7.5c0 1.2 2.5 2.2 5.5 2.2s5.5-1 5.5-2.2V17" stroke="#42A5F5" stroke-width="1.4" fill="none" stroke-linecap="round"/>
  <path d="M21.5 20.7c0 1.2 2.5 2.2 5.5 2.2s5.5-1 5.5-2.2" stroke="#42A5F5" stroke-width="1" fill="none" stroke-linecap="round"/>
</svg>
