<svg width="40" height="40" viewBox="0 0 40 40" fill="none" xmlns="http://www.w3.org/2000/svg">
  <rect width="40" height="40" rx="8" fill="#2B2D30"/>
  <ellipse cx="13" cy="12" rx="6" ry="2.6" fill="#59A869"/>
  <path d="M7 12v8c0 1.4 2.7 2.6 6 2.6s6-1.2 6-2.6v-8" stroke="#59A869" stroke-width="1.6" fill="none"/>
  <path d="M7 16c0 1.4 2.7 2.6 6 2.6s6-1.2 6-2.6" stroke="#59A869" stroke-width="1.6" fill="none"/>
  <ellipse cx="27" cy="18" rx="6" ry="2.6" fill="#C75450"/>
  <path d="M21 18v8c0 1.4 2.7 2.6 6 2.6s6-1.2 6-2.6v-8" stroke="#C75450" stroke-width="1.6" fill="none"/>
  <path d="M21 22c0 1.4 2.7 2.6 6 2.6s6-1.2 6-2.6" stroke="#C75450" stroke-width="1.6" fill="none"/>
</svg>
